<svg xmlns="http://www.w3.org/2000/svg" width="227.5px" height="50px" class="eemovel-dark-logo"><defs><style>.aP{fill:#fff}</style></defs><path class="aP" d="M0 15v35h27.5v-6.849H7.855V35.8h17.061v-6.848H7.855v-7.1h19.386V15ZM35 15h27.241v6.849H42.858v7.1h17.056V35.8H42.858v7.35H62.5V50H35ZM70 23h7.9v3.861a16.466 16.466 0 0 1 1.481-1.651 10.349 10.349 0 0 1 1.792-1.395 8.977 8.977 0 0 1 2.208-.964 9.748 9.748 0 0 1 2.725-.351 9.616 9.616 0 0 1 4.754 1.115 7.642 7.642 0 0 1 3.093 3.2A12.6 12.6 0 0 1 98 23.591a11.45 11.45 0 0 1 5.1-1.091 9.29 9.29 0 0 1 6.911 2.519q2.491 2.518 2.493 7.4V50H104.6V34.977a6.1 6.1 0 0 0-1.2-4.093 4.283 4.283 0 0 0-3.421-1.384 4.524 4.524 0 0 0-3.506 1.384 5.841 5.841 0 0 0-1.273 4.093V50h-7.9V34.977a6.091 6.091 0 0 0-1.2-4.093 4.283 4.283 0 0 0-3.423-1.384 4.528 4.528 0 0 0-3.507 1.384 5.841 5.841 0 0 0-1.27 4.093V50H70ZM133.8 43.125a7.252 7.252 0 0 0 2.873-.534 6.3 6.3 0 0 0 3.487-3.623 7.345 7.345 0 0 0 .466-2.625v-.093a7.018 7.018 0 0 0-.492-2.625 6.621 6.621 0 0 0-1.423-2.181 6.966 6.966 0 0 0-2.211-1.51 6.9 6.9 0 0 0-2.8-.558 7.294 7.294 0 0 0-2.873.534 6.284 6.284 0 0 0-3.484 3.623 7.3 7.3 0 0 0-.469 2.625v.093a7.011 7.011 0 0 0 .492 2.625 6.581 6.581 0 0 0 1.425 2.184 7.013 7.013 0 0 0 2.186 1.51 6.872 6.872 0 0 0 2.823.556M133.7 50a13.9 13.9 0 0 1-5.452-1.059 13.26 13.26 0 0 1-4.338-2.907 13.7 13.7 0 0 1-3.91-9.686v-.1A13.63 13.63 0 0 1 133.8 22.5a13.861 13.861 0 0 1 5.452 1.061 13.26 13.26 0 0 1 4.338 2.907 13.672 13.672 0 0 1 3.91 9.684v.1A13.627 13.627 0 0 1 133.7 50M207.5 32.5a5.981 5.981 0 0 0-1.965-3.619 6.156 6.156 0 0 0-4.2-1.38 6.009 6.009 0 0 0-6.332 5ZM202.138 50a15.576 15.576 0 0 1-5.828-1.076 13.462 13.462 0 0 1-4.655-3.064 14.211 14.211 0 0 1-3.056-4.7 15.967 15.967 0 0 1-1.099-6.053V35a16.5 16.5 0 0 1 1.02-5.806 14.816 14.816 0 0 1 2.849-4.786 13.366 13.366 0 0 1 4.366-3.225 13.123 13.123 0 0 1 5.62-1.183 13.32 13.32 0 0 1 6.065 1.291 12.412 12.412 0 0 1 4.262 3.468 14.657 14.657 0 0 1 2.508 5 21.255 21.255 0 0 1 .81 5.888 24.707 24.707 0 0 1-.102 2.151h-19.5a6.915 6.915 0 0 0 2.378 4.219 7 7 0 0 0 4.47 1.426 8.642 8.642 0 0 0 3.557-.7 12.115 12.115 0 0 0 3.242-2.257l4.545 4.14a14.174 14.174 0 0 1-4.807 3.951A14.576 14.576 0 0 1 202.138 50ZM220 12.5h7.5V50H220ZM174.928 22.5 167.5 34.174 160.07 22.5H150L167.5 50 185 22.5Z"></path><path class="up-path" d="M111.875 37.638a16.4 16.4 0 0 0-24.749 0A20.134 20.134 0 0 0 82 51.25c0 .252 0 .5.013.75h9.057q-.026-.371-.026-.75c0-5.129 3.793-9.3 8.455-9.3s8.456 4.172 8.456 9.3c0 .252-.011.5-.028.75h9.057c.011-.25.015-.5.015-.747a20.139 20.139 0 0 0-5.125-13.615" transform="translate(68 -32)" style="fill: rgb(224, 163, 55);"></path></svg>
